<?xml version="1.0" standalone="no"?><!DOCTYPE svg PUBLIC "-//W3C//DTD SVG 1.1//EN" "http://www.w3.org/Graphics/SVG/1.1/DTD/svg11.dtd"><svg t="1765949438963" class="icon" viewBox="0 0 1024 1024" version="1.1" xmlns="http://www.w3.org/2000/svg" p-id="9382" xmlns:xlink="http://www.w3.org/1999/xlink" width="200" height="200"><path d="M537.6 942.08c-104.0384 0-203.6736-39.0144-277.2992-117.0432-155.9552-151.6544-155.9552-402.8416 0-554.496C333.9264 196.9152 433.5616 153.6 537.6 153.6c103.936 0 199.2704 34.6112 272.896 103.936C884.1216 322.56 927.4368 413.4912 931.84 508.8256c0 134.2464-86.7328 212.2752-190.6688 220.8768-43.3152 4.4032-121.344-8.6016-138.6496 13.0048-39.0144 47.7184 34.7136 78.0288 30.3104 125.6448 0 43.3152-38.912 73.728-95.232 73.728z" fill="#FFD44D" p-id="9383" data-spm-anchor-id="a313x.search_index.0.i0.22ab3a81Y9eMYr" class="selected"></path><path d="M506.88 1003.52c-125.6448 0-245.9648-47.104-334.9504-141.312-188.3136-183.1936-188.3136-486.6048 0-669.7984C260.9152 103.424 381.2352 51.2 506.88 51.2 632.4224 51.2 747.52 92.9792 836.5056 176.7424 925.3888 255.1808 977.7152 365.056 983.04 480.256c0 162.2016-104.6528 256.3072-230.2976 266.8544-52.3264 5.2224-146.5344-10.5472-167.424 15.6672-47.104 57.5488 41.8816 94.208 36.6592 151.7568 0 52.3264-47.104 88.9856-115.0976 88.9856z m0-863.4368c-104.6528 0-198.8608 41.8816-272.1792 115.0976-151.7568 151.7568-151.7568 397.7216 0 549.4784 73.3184 73.216 167.5264 115.0976 272.1792 115.0976 5.2224 0 10.4448-5.2224 10.4448-10.4448v-5.2224l-10.4448-5.2224a142.09024 142.09024 0 0 1-31.4368-88.9856c0-78.5408 62.7712-141.312 141.312-141.312h88.8832c104.6528 0 188.416-83.6608 188.416-188.3136-5.2224-188.416-177.9712-340.1728-387.1744-340.1728z" fill="#592B0C" p-id="9384"></path><path d="M225.28 476.16c0 32.1536 24.064 56.32 56.32 56.32 32.1536 0 56.32-24.1664 56.32-56.32 0-32.256-24.1664-56.32-56.32-56.32-32.256 0-56.32 24.064-56.32 56.32z" fill="#E02020" p-id="9385"></path><path d="M378.88 312.32c0 32.1536 24.064 56.32 56.32 56.32 32.1536 0 56.32-24.1664 56.32-56.32 0-32.256-24.1664-56.32-56.32-56.32-32.256 0-56.32 24.064-56.32 56.32z" fill="#6DD401" p-id="9386"></path><path d="M894.6688 98.304S660.8896 305.3568 594.1248 368.5376c-51.2 49.152-52.736 71.7824-69.4272 148.7872-0.4096 2.1504-0.2048 4.3008 0.4096 6.3488 0.7168 2.048 1.9456 3.7888 3.584 5.2224l47.4112 39.936c2.2528 1.8432 4.7104 2.7648 7.68 2.6624 1.536 0.1024 3.1744-0.2048 4.608-0.8192 71.0656-29.7984 93.184-35.4304 130.9696-95.3344 50.0736-78.6432 208.6912-349.0816 208.6912-349.0816 0.7168-1.1264 1.4336-2.2528 1.9456-3.4816 0.512-1.2288 0.9216-2.56 1.2288-3.8912 0.3072-1.2288 0.512-2.56 0.512-3.8912 0.1024-1.4336 0-2.7648-0.2048-4.096-0.1024-1.3312-0.4096-2.56-0.9216-3.8912a28.16 28.16 0 0 0-1.536-3.6864c-0.7168-1.1264-1.4336-2.2528-2.3552-3.2768-0.8192-1.024-1.7408-1.9456-2.7648-2.8672-1.024-0.8192-2.1504-1.6384-3.2768-2.2528-1.2288-0.7168-2.4576-1.2288-3.6864-1.6384-1.3312-0.4096-2.56-0.7168-3.8912-0.9216-1.3312-0.2048-2.6624-0.3072-4.096-0.2048-1.3312 0-2.6624 0.2048-3.8912 0.512-1.3312 0.3072-2.6624 0.7168-3.8912 1.2288-1.2288 0.512-2.3552 1.1264-3.4816 1.9456-1.1264 0.7168-2.1504 1.536-3.072 2.4576zM541.184 615.2192l-55.9104-50.176c-2.3552-2.048-5.12-2.9696-8.2944-2.7648h-0.4096c-135.9872 0-94.72 168.5504-217.6 168.5504-11.9808-3.6864-23.1424-8.8064-33.6896-15.4624C260.9152 783.7696 322.7648 798.72 378.5728 798.72c86.9376 0 173.568-59.4944 167.3216-174.4896-0.1024-1.7408-0.6144-3.4816-1.3312-5.0176-0.8192-1.6384-1.9456-2.9696-3.3792-3.9936z" fill="#FFFFFF" p-id="9387"></path><path d="M873.7792 75.776C717.9264 213.7088 617.6768 303.9232 573.0304 346.2144c-24.8832 23.8592-42.496 46.7968-52.4288 68.7104-6.8608 14.9504-14.2336 41.472-22.3232 79.4624-1.536 7.168-2.7648 12.5952-3.584 16.4864-1.536 7.8848-1.1264 15.36 1.3312 22.6304 0.3072 0.9216 0.6144 1.7408 1.024 2.56-6.3488-3.2768-13.2096-4.7104-20.6848-4.5056-39.0144 0-71.168 12.0832-96.3584 36.0448-14.0288 13.312-29.3888 35.9424-46.08 67.9936-12.6976 24.2688-23.04 40.3456-31.0272 48.2304-10.0352 9.9328-23.2448 15.36-39.3216 16.1792a70.656 70.656 0 0 1-9.1136-3.6864c-4.4032-1.9456-8.704-4.3008-12.8-6.9632l-96.4608-61.1328 52.736 101.2736c13.2096 25.2928 30.0032 45.6704 50.4832 61.3376C281.9072 816.5376 325.3248 829.44 378.5728 829.44c55.0912 0 101.5808-17.408 139.3664-52.224 15.36-14.1312 27.7504-29.9008 37.0688-47.3088 16.5888-30.72 23.7568-66.4576 21.504-107.3152-0.3072-6.144-1.8432-11.9808-4.7104-17.5104-1.024-1.9456-2.1504-3.7888-3.3792-5.5296 4.7104 1.8432 9.8304 2.6624 15.2576 2.6624 5.5296 0.1024 10.8544-0.9216 16.0768-2.9696 3.7888-1.6384 8.9088-3.6864 15.36-6.4512 35.4304-14.6432 59.904-26.8288 73.216-36.352 19.5584-13.9264 38.5024-35.4304 56.9344-64.6144 33.5872-52.736 103.1168-169.1648 208.896-349.3888l1.8432-3.072c0.7168-1.4336 1.4336-2.8672 2.1504-4.4032 1.2288-2.9696 2.2528-5.9392 2.9696-9.1136a50.66752 50.66752 0 0 0 0.8192-19.2512 49.152 49.152 0 0 0-2.1504-9.3184c-1.024-3.072-2.3552-6.0416-3.8912-8.8064-1.6384-2.8672-3.3792-5.5296-5.4272-7.9872-1.024-1.2288-2.048-2.3552-3.1744-3.4816-1.1264-1.2288-2.3552-2.3552-3.6864-3.3792-1.2288-1.024-2.4576-2.048-3.7888-2.9696-1.3312-0.8192-2.7648-1.7408-4.096-2.56-2.8672-1.536-5.8368-2.8672-8.8064-3.8912-3.072-1.024-6.2464-1.8432-9.4208-2.2528-3.1744-0.512-6.4512-0.6144-9.6256-0.512-3.2768 0.1024-6.4512 0.512-9.6256 1.2288-3.072 0.7168-6.144 1.7408-9.1136 2.9696-2.9696 1.3312-5.8368 2.8672-8.4992 4.608-1.4336 1.024-2.8672 2.048-4.1984 3.1744-0.9216 0.7168-1.7408 1.536-2.6624 2.3552zM305.8688 753.4592c20.1728 9.728 44.4416 14.5408 72.704 14.5408 39.1168 0 71.7824-12.0832 97.792-36.0448 26.7264-24.576 39.7312-57.4464 39.1168-98.6112l-44.8512-40.1408c-16.7936 0.8192-30.8224 5.4272-42.1888 13.7216-2.1504 1.6384-4.1984 3.2768-6.0416 5.2224-9.1136 8.6016-20.48 25.9072-33.9968 51.8144-15.6672 30.1056-29.7984 51.3024-42.3936 63.6928a114.3296 114.3296 0 0 1-40.1408 25.8048zM576.512 440.4224c6.656-14.7456 19.6608-31.232 38.8096-49.664 40.2432-38.0928 126.5664-115.8144 258.56-233.0624-90.112 153.2928-150.3232 253.7472-180.5312 301.2608-14.1312 22.4256-27.648 38.1952-40.6528 47.5136-9.6256 6.7584-30.0032 16.6912-61.1328 29.5936-1.6384 0.7168-3.072 1.3312-4.4032 1.8432l-30.0032-25.1904c0.4096-1.7408 0.7168-3.584 1.1264-5.5296 7.168-33.5872 13.2096-55.9104 18.2272-66.7648z" fill="#592B0C" p-id="9388"></path></svg>